<svg width="16" height="20" viewBox="0 0 16 20" fill="none" xmlns="http://www.w3.org/2000/svg">
<path fill-rule="evenodd" clip-rule="evenodd" d="M8.00001 0C6.89544 0 6.00001 0.89543 6.00001 2V2.34141C3.66962 3.16508 2.00001 5.38756 2.00001 8L2.00001 9.5L2.00001 11.5996L0.382537 13.8237C-0.0599155 14.432 -0.123575 15.2372 0.217778 15.9076C0.559133 16.5779 1.24776 17 2.00001 17H5.00001C5.00001 18.6569 6.34315 20 8.00001 20C9.65686 20 11 18.6569 11 17H14C14.7523 17 15.4409 16.5779 15.7822 15.9076C16.1236 15.2372 16.0599 14.432 15.6175 13.8237L14 11.5996L14 9.5V8C14 5.38756 12.3304 3.16508 10 2.34141V2C10 0.895431 9.10458 0 8.00001 0ZM9.00119 15H9.00001H7.00001L4.473 15H2.00001L3.45455 13L3.61748 12.776C3.86609 12.4341 4.00001 12.0223 4.00001 11.5996V9.5V8C4.00001 5.79086 5.79087 4 8.00001 4C10.2091 4 12 5.79086 12 8L12 9.5V11.5996C12 12.0223 12.1339 12.4341 12.3825 12.776L12.5455 13L14 15H11.527H9.00119ZM8.00001 18C7.44772 18 7.00001 17.5523 7.00001 17H9.00001C9.00001 17.5523 8.55229 18 8.00001 18Z" fill="#585858"/>
</svg>
