<?xml version="1.0" standalone="no"?>
<!DOCTYPE svg PUBLIC "-//W3C//DTD SVG 20010904//EN"
 "http://www.w3.org/TR/2001/REC-SVG-20010904/DTD/svg10.dtd">
<svg version="1.0" xmlns="http://www.w3.org/2000/svg"
 width="20.000000pt" height="20.000000pt" viewBox="0 0 200.000000 200.000000"
 preserveAspectRatio="xMidYMid meet">

<g transform="translate(0.000000,200.000000) scale(0.100000,-0.100000)"
fill="#000000" stroke="none">
<path d="M966 1934 c-14 -14 -16 -82 -16 -596 l0 -580 -26 -21 c-92 -72 -41
-217 76 -217 71 0 120 53 120 131 0 34 -6 47 -35 76 l-35 35 0 299 0 299 78 0
c42 0 102 7 132 15 100 27 168 34 227 25 94 -16 93 -17 93 234 0 116 -4 217
-8 224 -22 34 -163 42 -272 16 -106 -25 -165 -33 -209 -27 -36 5 -41 9 -41 32
0 57 -50 90 -84 55z m522 -286 l3 -148 -63 0 c-35 0 -92 -7 -128 -16 -119 -28
-160 -34 -205 -27 l-45 6 0 146 0 147 68 -3 c45 -2 101 4 172 21 58 13 125 24
150 23 l45 -2 3 -147z"/>
<path d="M799 1196 c-181 -64 -329 -230 -374 -417 -75 -320 131 -647 450 -714
426 -89 799 292 700 714 -43 179 -188 349 -352 411 -98 36 -93 37 -93 -17 l0
-49 63 -27 c282 -123 386 -465 219 -723 -217 -336 -728 -282 -875 93 -101 259
45 559 316 647 13 4 17 17 17 56 0 27 -1 50 -2 50 -2 0 -33 -11 -69 -24z"/>
<path d="M809 942 c-58 -38 -106 -93 -138 -162 -20 -45 -25 -70 -25 -135 0
-107 28 -178 97 -249 60 -60 121 -93 201 -106 116 -19 227 19 313 106 68 71
96 142 97 249 1 92 -25 162 -85 230 -32 36 -113 95 -131 95 -4 0 -8 -24 -8
-52 0 -47 3 -55 28 -72 35 -23 69 -72 88 -123 60 -170 -90 -359 -271 -340
-138 14 -234 119 -235 255 0 90 44 179 105 212 22 12 25 20 25 67 0 29 -4 53
-8 53 -4 0 -28 -13 -53 -28z"/>
</g>
</svg>
