<?xml version="1.0" standalone="no"?>
<!DOCTYPE svg PUBLIC "-//W3C//DTD SVG 20010904//EN"
 "http://www.w3.org/TR/2001/REC-SVG-20010904/DTD/svg10.dtd">
<svg version="1.0" xmlns="http://www.w3.org/2000/svg"
 width="20.000000pt" height="20.000000pt" viewBox="0 0 200.000000 200.000000"
 preserveAspectRatio="xMidYMid meet">

<g transform="translate(0.000000,200.000000) scale(0.100000,-0.100000)"
fill="#488ab5" stroke="none">
<path d="M964 1936 c-18 -14 -19 -33 -22 -535 l-3 -521 -121 -167 c-66 -93
-124 -172 -128 -176 -4 -4 -35 30 -68 76 -63 87 -81 102 -113 92 -27 -9 -429
-570 -429 -599 0 -59 -50 -56 920 -56 970 0 920 -3 920 56 0 29 -404 591 -431
599 -30 10 -55 -11 -115 -95 -32 -44 -61 -77 -65 -73 -4 5 -64 86 -133 182
l-126 173 0 227 0 226 78 0 c63 1 96 7 186 39 81 28 125 38 170 38 98 0 96 -5
96 238 0 253 3 245 -107 245 -63 -1 -98 -8 -183 -37 -58 -20 -118 -39 -135
-42 -43 -9 -89 7 -93 30 -13 87 -48 116 -98 80z"/>
</g>
</svg>
