<svg width="70" height="50" viewBox="0 0 99 40" fill="none" xmlns="http://www.w3.org/2000/svg">
<path d="M0 2C0 0.895431 0.895431 0 2 0H97C98.1046 0 99 0.895431 99 2V38C99 39.1046 98.1046 40 97 40H2C0.895433 40 0 39.1046 0 38V2Z" fill="#DB4437"/>
<g clip-path="url(#clip0)">
<path d="M59.8648 20.8382C59.8648 19.9924 59.7938 19.3751 59.6401 18.735H49.6458V22.5527H55.5122C55.394 23.5014 54.7553 24.9302 53.336 25.8903L53.3161 26.0181L56.4761 28.3838L56.695 28.4049C58.7056 26.6104 59.8648 23.97 59.8648 20.8382Z" fill="white"/>
<path d="M49.6458 30.8968C52.5199 30.8968 54.9326 29.9824 56.695 28.4051L53.336 25.8904C52.4371 26.4962 51.2307 26.9191 49.6458 26.9191C46.8309 26.9191 44.4418 25.1246 43.5901 22.6443L43.4653 22.6545L40.1794 25.112L40.1365 25.2275C41.8869 28.5879 45.4825 30.8968 49.6458 30.8968Z" fill="white"/>
<path d="M43.5901 22.6443C43.3653 22.0042 43.2353 21.3183 43.2353 20.6097C43.2353 19.901 43.3653 19.2152 43.5782 18.5751L43.5723 18.4388L40.2453 15.9418L40.1365 15.9919C39.415 17.3864 39.001 18.9523 39.001 20.6097C39.001 22.2671 39.415 23.8329 40.1365 25.2274L43.5901 22.6443Z" fill="white"/>
<path d="M49.6458 14.3002C51.6446 14.3002 52.9929 15.1346 53.7618 15.8319L56.7659 12.9972C54.9209 11.3399 52.5199 10.3226 49.6458 10.3226C45.4825 10.3226 41.8869 12.6314 40.1365 15.9919L43.5783 18.5751C44.4418 16.0948 46.8309 14.3002 49.6458 14.3002Z" fill="white"/>
</g>
<defs>
<clipPath id="clip0">
<rect width="20.8758" height="20.6452" fill="white" transform="translate(39 10.3226)"/>
</clipPath>
</defs>
</svg>
