<?xml version="1.0" encoding="UTF-8"?>
<svg class="css-1j8o68f" viewBox="0 0 301.84 294.3" xmlns="http://www.w3.org/2000/svg">
    <g transform="matrix(2.8853 0 0 2.8853 .034023 0)" fill="#08d9d6" featurekey="rootContainer">
        <path d="M50.8 102h5.8l1.8-.2 1.7-.3h1.7l1.9-.3 1.8-.4.9-.2.9-.3 1.7-.6 2-.8a54 54 0 0 0 15.3-9.4l1.4-1.2.7-.5.6-.4 1-.5.8-.5 1.5-1.2 1.5-1.5.8-1 .9-1.1a50.9 50.9 0 0 0 3.9-5.8 34.8 34.8 0 0 0 1.6-3.1l.2-.4.2-.4.3-.8.3-.9.2-.4v-.4l.4-1.2.2-.6v-.3h.1v-.2l.7-2.5c.2-.9.4-1.7.5-2.6a25.4 25.4 0 0 0 .2-2.6v-3.1c0-.3 0-1 .1-1.5v-2.1a21.3 21.3 0 0 0 .2-2.6v-2.6c0-.9-.1-1.1-.1-1.6l-.2-1.5c-.1-1-.4-2-.5-3s-.2-1-.3-1.4l-.3-1.4-.3-1.4v-1.7l-.4-1.4-.2-.7-.2-.7-.4-1.4-.5-1.4-.4-1-.5-1-1-2.1a40.7 40.7 0 0 1-1.8-4.1 3.6 3.6 0 0 0-.8-1.2l-.7-.6-.2-.3-.3-.5a25.7 25.7 0 0 0-1.6-2.3l-.8-1.1-.9-1.1-.4-.5-.2-.3-.2-.2h-.1l-.9-1-.5-.5-.5-.5-.9-1.1-1.1-1a47.9 47.9 0 0 0-3.8-3l-.1-.5-1.3-.9A29 29 0 0 0 72 .4h-3.1a.8.8 0 0 0-.6 1.2A3.9 3.9 0 0 0 69.9 3l-.6.3-.4-.2a.9.9 0 0 0 0-.3c-.1-.5-.2-.9-1.3-1.3L65.3.7l-.6-.2h-.6L62.8 0l-1.3 1.2A48.5 48.5 0 0 0 39 2.4 31.1 31.1 0 0 0 31.4 4h-.5l-.5.2-1 .4-1 .5-.9.6-1.8 1.5-.8.6-.7.7c-1 .9-1.9 1.9-2.8 2.8L20 12.8l-1.4 1.5-.5.5-.5.5-1.1 1a55.1 55.1 0 0 0-7 7l.2-.5.6-1.1.6-1.1.6-1.1.6-1.2.6-1.2 1.2-2.4.4-.8.3-.6a1 1 0 0 0 0-.8 3.7 3.7 0 0 1-.2-1.2 17.1 17.1 0 0 0-2.1 1.1l-1.5 1.1-.8.6-.7.7-.8 1-.5 1-.5 1-.2.5-.3.5-.3.6-.4.8-.4.8-.7 1.7-.5 1.3-.5 1.3v.7l-.2.6-.3 1.3v.2h-.4v.3l-.2.7-.3 1.4-.2.7-.2.7-.4 1.7-.4 1.9-.2.9v2.8l-.6 1.9a38.3 38.3 0 0 0-.1 4.1 52.7 52.7 0 0 0-.7 8.7 5.2 5.2 0 0 0 0 .7c.5 3 .8 6 1.5 9l.4 1.8.5 1.8a18.3 18.3 0 0 0 .6 1.7l.4.8.4.8.9 1.7.5.8.5.8.5.8.5.8L7.8 77c1.4 2 2.9 4 4.5 5.9a35.6 35.6 0 0 0 2.6 2.7l.7.6.3.3.4.3 1.5 1.1 1 1a34 34 0 0 0 8.2 6.2l1.4.7 1.5.7.7.3.8.3 1.5.6.9.4.8.4.8.4 1 .4 1.9.7 1.9.6 1.6.4 1.6.4 1.6.3h5.7z" xmlns="http://www.w3.org/2000/svg"/>
    </g>
    <g transform="matrix(.81264 0 0 .81264 109.58 32.799)" fill="#252a34" featurekey="symbolFeature-0">
        <path d="m58.6 59.9s-2.6 35.1-6.4 35.1-6.4-35.1-6.4-35.1h12.8z" xmlns="http://www.w3.org/2000/svg"/>
        <path d="m43.3 57.7h17c3.8-2.1 6.5-5.5 7-9.4h-31.1c0.5 3.9 3.2 7.4 7.1 9.4z" xmlns="http://www.w3.org/2000/svg"/>
        <path d="m56.9 6.4s0 1.1 0.5 2.3 1.7 2.6 0.8 3.5-2.3-0.5-2.1-3.2c0.2-1.5 0.8-2.6 0.8-2.6z" xmlns="http://www.w3.org/2000/svg"/>
        <path d="m63.1 18.2s0.2 0.8 0 1.7c-0.2 1-0.8 2.2 0 2.6 0.8 0.5 1.5-1 1-2.7-0.4-1-1-1.6-1-1.6z" xmlns="http://www.w3.org/2000/svg"/>
        <path d="m46.6 13.5s0.1 0.9-0.2 2c-0.4 1.1-1.2 2.4-0.3 3.1s1.9-0.7 1.5-3c-0.3-1.3-1-2.1-1-2.1z" xmlns="http://www.w3.org/2000/svg"/>
        <path d="m39.8 19.7s0 0.8 0.3 1.6c0.4 0.8 1.1 1.7 0.5 2.3s-1.5-0.3-1.4-2.1c0.2-1.1 0.6-1.8 0.6-1.8z" xmlns="http://www.w3.org/2000/svg"/>
        <path d="m59.2 18.2c-0.1-0.1-0.1-0.2-0.2-0.3 0 1.2-0.2 2.4-0.5 3.5-0.1-0.2-1.4-3-1.4-3s0.1 4-0.4 5.2c-1.2-3.7-2.5-7.2-4-10.6-0.5-1.2-1.1-2.3-1.8-3.3l-0.3-0.3c-1.2 7.7-3 13.2-3.6 14.9-0.4-0.8-0.7-3.8-0.7-3.8s-1.3 1.7-1.4 1.9c-0.5-0.7-0.8-2.1-0.7-3.4 0 0-12.6 27.3 7.2 27.3 17.9-0.1 12.1-20.8 7.8-28.1z" xmlns="http://www.w3.org/2000/svg"/>
    </g>
    <g transform="matrix(4.3831 0 0 4.3831 48.273 82.252)" fill="#252a34" featurekey="nameFeature-0">
        <path d="m0.8 14.96c-0.12-0.52-0.16-1-0.16-1.48 0-0.24-0.04-0.52 0-0.8 0.08-0.52 0.16-0.64 0.72-0.68 0.16-0.04 0.32-0.04 0.44 0 0.76 0 1.52-0.08 2.24-0.32 0.08 0 0.16-0.04 0.2-0.04 0.48-0.04 0.92-0.08 1.4-0.12 0.2 0 0.4 0 0.56 0.04 0.32 0 0.6 0.04 0.88 0.08 0.12 0.04 0.24 0.04 0.36 0.08 0.44 0.12 0.88 0.24 1.36 0.2 0.24 0 0.48 0.04 0.72 0.16 0.16 0.08 0.36 0.16 0.52 0.2 0.16 0.08 0.32 0.12 0.48 0.2 0.48 0.28 0.92 0.6 1.4 0.92 0.12 0.08 0.2 0.2 0.28 0.32 0.32 0.36 0.64 0.76 1 1.08 0.2 0.16 0.32 0.36 0.44 0.56 0.32 0.44 0.6 0.92 0.76 1.48 0.12 0.36 0.24 0.72 0.32 1.12 0 0.2 0.08 0.36 0.16 0.56 0.04 0.12 0.08 0.24 0.08 0.36 0.04 0.72 0.16 1.44 0.28 2.16v0.08c-0.04 0.76 0.16 1.52 0.16 2.32 0.04 0.72 0.08 1.44 0.2 2.16 0.04 0.24 0.12 0.48 0.16 0.72 0 0.16 0.04 0.32 0.04 0.52 0.04 0.48 0.08 0.96 0.08 1.44 0 0.52-0.04 1.04-0.04 1.52 0 0.52-0.08 1.04-0.16 1.52-0.08 0.6-0.08 1.16-0.24 1.76v0.36c0 0.24-0.04 0.48-0.16 0.68-0.08 0.24-0.16 0.48-0.2 0.72 0 0.12-0.04 0.28-0.12 0.4-0.12 0.28-0.16 0.56-0.16 0.88 0 0.2-0.08 0.36-0.2 0.52-0.16 0.2-0.28 0.44-0.36 0.72-0.08 0.24-0.28 0.4-0.44 0.56 0 0.04-0.04 0.08-0.12 0.12-0.28 0.08-0.52 0.28-0.76 0.52-0.04 0.04-0.16 0.08-0.28 0.08-0.24 0-0.44 0.04-0.68 0.12-0.64 0.08-1.28 0.28-1.96 0.28-0.6 0.04-1.2 0.04-1.8 0-1.08-0.04-2.12 0-3.16 0-0.12 0-0.24 0-0.36 0.04h-0.2c-0.56 0-1.08-0.04-1.6-0.08-0.08-0.04-0.2-0.08-0.28-0.12-0.16-0.24-0.44-0.28-0.68-0.4-0.08-0.04-0.16-0.12-0.16-0.24 0.04-0.48 0-1 0.2-1.48 0.04-0.16 0.12-0.32 0.16-0.48 0.12-0.28 0.32-0.36 0.6-0.4 0.2-0.04 0.44 0 0.64 0.08 0.08 0 0.2-0.08 0.2-0.16 0.04-0.24 0.04-0.44 0.04-0.68v-7.48-8.56-3.48c0-0.16 0-0.32-0.04-0.44 0-0.08-0.08-0.12-0.16-0.16-0.32-0.04-0.64-0.04-0.92 0.04-0.36 0.12-0.72 0.12-1.08 0-0.16-0.08-0.4-0.08-0.6-0.08zm5.88-0.16c0 0.08-0.04 0.12-0.04 0.2v0.68 19.36 0.52 0.24c0.04 0.08 0.12 0.16 0.2 0.16h0.44c0.64 0.04 1.24 0 1.84 0.04 0.48 0 0.92-0.08 1.36-0.16 0.28-0.04 0.56-0.16 0.84-0.24 0.16-0.08 0.24-0.16 0.24-0.32 0.04-0.32 0.12-0.6 0.24-0.84 0.12-0.28 0.16-0.56 0.24-0.84 0.04-0.12 0.08-0.2 0.12-0.28 0.12-0.2 0.16-0.4 0.2-0.6 0.08-0.48 0.12-0.92 0.2-1.4 0.2-1.2 0.2-2.4 0.2-3.6 0-0.4-0.04-0.8-0.16-1.16-0.08-0.16-0.08-0.32-0.12-0.48-0.04-0.4-0.04-0.8-0.12-1.16-0.04-0.16-0.04-0.36-0.04-0.52 0.04-0.6 0-1.16-0.08-1.76-0.04-0.24-0.04-0.52-0.08-0.8 0-0.12 0-0.28-0.04-0.4-0.08-0.68-0.2-1.36-0.32-2.04-0.08-0.64-0.32-1.2-0.52-1.8-0.04-0.2-0.16-0.36-0.28-0.52-0.28-0.28-0.56-0.6-0.8-0.92-0.24-0.28-0.48-0.48-0.8-0.64-0.4-0.28-0.8-0.4-1.28-0.52-0.2-0.04-0.4-0.08-0.64-0.12s-0.52-0.12-0.8-0.08zm17.086 24.92-0.36-0.12s-0.24-0.04-0.32 0-0.2 0.04-0.28 0.04c-0.6-0.08-1.32-0.24-1.8-0.8-0.04 0-0.08-0.04-0.12-0.08-0.64-0.4-1.04-1-1.6-1.52-0.2-0.16-0.32-0.36-0.44-0.56-0.08-0.16-0.16-0.36-0.2-0.52-0.12-0.28-0.2-0.56-0.2-0.84 0.04-0.2-0.04-0.4-0.08-0.6-0.08-0.28-0.12-0.56-0.2-0.84-0.2-0.68-0.28-1.36-0.44-2.04-0.08-0.36-0.08-0.72-0.08-1.08 0-1.24-0.04-2.48-0.04-3.72s0.04-2.48 0.04-3.76v-1.8c0.04-0.28 0-0.56-0.16-0.8-0.04-0.08-0.04-0.2-0.04-0.32 0.04-0.08 0.04-0.12 0.04-0.2 0.08-0.44 0.08-0.88-0.04-1.32-0.04-0.2-0.04-0.4 0-0.6 0.08-0.36 0.12-0.68 0-1v-0.28c0.04-0.12 0.04-0.2 0.08-0.32 0.12-0.28 0.16-0.6 0.16-0.92 0-0.24 0.04-0.48 0.16-0.72 0.2-0.48 0.52-0.88 0.72-1.36 0.04-0.08 0.08-0.16 0.16-0.2 0.4-0.44 0.8-0.88 1.28-1.2 0.32-0.2 0.6-0.44 0.92-0.68 0.16-0.16 0.36-0.24 0.6-0.28 0.32-0.08 0.6-0.12 0.92-0.2 0.16-0.08 0.32-0.08 0.44-0.08 0.16-0.04 0.32-0.04 0.48-0.08 0.12-0.04 0.28-0.04 0.4 0.04 0.04 0.04 0.12 0.04 0.16 0.08 0.2 0.12 0.44 0.16 0.68 0.16h0.4s0.28 0.04 0.4 0.16c0.04 0.04 0.08 0.08 0.12 0.08 0.12 0.16 0.28 0.24 0.44 0.28 0.44 0.16 0.72 0.44 1 0.8 0.16 0.24 0.36 0.52 0.6 0.72 0.08 0.08 0.16 0.2 0.2 0.32 0.12 0.28 0.24 0.52 0.32 0.84 0.04 0.2 0.16 0.4 0.24 0.6 0.12 0.24 0.2 0.52 0.24 0.76 0 0.36 0.08 0.72 0.16 1.08 0.08 0.32 0.12 0.68 0.12 1-0.04 0.32 0 0.64 0.12 0.92 0.04 0.12 0.04 0.24 0.04 0.32 0.04 0.2 0.04 0.4-0.08 0.52-0.08 0.12-0.08 0.28-0.08 0.4v0.72 13.24c0.04 0.6-0.12 1.2-0.36 1.76l-0.84 1.92c-0.08 0.12-0.16 0.2-0.24 0.32-0.36 0.52-0.92 0.84-1.4 1.2-0.2 0.16-0.4 0.24-0.64 0.28-0.12 0-0.28 0.04-0.4 0.04-0.4 0-0.8 0.12-1.2 0.24zm-3-13.2v4.48 0.68c0 0.12 0 0.24 0.04 0.32 0.16 0.28 0.2 0.56 0.24 0.84 0.04 0.12 0.08 0.28 0.12 0.4 0.16 0.4 0.32 0.76 0.48 1.16 0.08 0.16 0.16 0.36 0.24 0.48 0.28 0.32 0.56 0.64 0.8 0.92 0.32 0.36 0.76 0.48 1.24 0.44 0.36-0.04 0.64-0.16 0.8-0.52 0.04-0.08 0.04-0.16 0.08-0.24 0-0.36 0.12-0.72 0.24-1.08 0.08-0.28 0.16-0.56 0.16-0.84 0-0.2 0.08-0.4 0.12-0.6 0.24-0.56 0.32-1.16 0.36-1.76 0-0.44 0-0.84 0.04-1.28 0-0.16 0-0.32-0.08-0.48-0.04-0.08-0.04-0.2 0-0.32 0.12-0.52 0.08-1.04 0.04-1.56-0.08-0.76-0.04-1.56-0.04-2.32 0-1.48 0.04-2.92 0.04-4.4 0.04-0.24 0.04-0.44-0.04-0.68-0.04-0.08-0.04-0.2-0.04-0.32-0.04-0.56-0.12-1.12-0.24-1.68s-0.24-1.12-0.24-1.72c0-0.28-0.12-0.56-0.24-0.84-0.08-0.16-0.2-0.28-0.28-0.44-0.08-0.2-0.24-0.32-0.44-0.4-0.08-0.08-0.2-0.12-0.28-0.16-0.6-0.2-1.12-0.16-1.6 0.24-0.28 0.24-0.52 0.48-0.76 0.76-0.16 0.12-0.24 0.32-0.28 0.52-0.08 0.4-0.16 0.84-0.24 1.24v0.2c0 0.2-0.04 0.4 0 0.6 0 0.24-0.16 0.44-0.2 0.68v0.04c-0.04 0.52-0.12 1.04-0.16 1.56-0.04 0.36-0.04 0.76 0.04 1.12 0.04 0.12 0.04 0.24 0.04 0.36 0 1.56-0.04 3.16 0.04 4.6zm10.406-11.56c-0.12-0.52-0.16-1-0.16-1.48 0-0.24-0.04-0.52 0-0.8 0.08-0.52 0.16-0.64 0.72-0.68 0.16-0.04 0.32-0.04 0.44 0 0.76 0 1.52-0.08 2.24-0.32 0.08 0 0.16-0.04 0.2-0.04 0.48-0.04 0.92-0.08 1.4-0.12 0.2 0 0.4 0 0.56 0.04 0.32 0 0.6 0.04 0.88 0.08 0.12 0.04 0.24 0.04 0.36 0.08 0.44 0.12 0.88 0.24 1.36 0.2 0.24 0 0.48 0.04 0.72 0.16 0.16 0.08 0.36 0.16 0.52 0.2 0.16 0.08 0.32 0.12 0.48 0.2 0.48 0.28 0.92 0.6 1.4 0.92 0.12 0.08 0.2 0.2 0.28 0.32 0.32 0.36 0.64 0.76 1 1.08 0.2 0.16 0.32 0.36 0.44 0.56 0.32 0.44 0.6 0.92 0.76 1.48 0.12 0.36 0.24 0.72 0.32 1.12 0 0.2 0.08 0.36 0.16 0.56 0.04 0.12 0.08 0.24 0.08 0.36 0.04 0.72 0.16 1.44 0.28 2.16v0.08c-0.04 0.76 0.16 1.52 0.16 2.32 0.04 0.72 0.08 1.44 0.2 2.16 0.04 0.24 0.12 0.48 0.16 0.72 0 0.16 0.04 0.32 0.04 0.52 0.04 0.48 0.08 0.96 0.08 1.44 0 0.52-0.04 1.04-0.04 1.52 0 0.52-0.08 1.04-0.16 1.52-0.08 0.6-0.08 1.16-0.24 1.76v0.36c0 0.24-0.04 0.48-0.16 0.68-0.08 0.24-0.16 0.48-0.2 0.72 0 0.12-0.04 0.28-0.12 0.4-0.12 0.28-0.16 0.56-0.16 0.88 0 0.2-0.08 0.36-0.2 0.52-0.16 0.2-0.28 0.44-0.36 0.72-0.08 0.24-0.28 0.4-0.44 0.56 0 0.04-0.04 0.08-0.12 0.12-0.28 0.08-0.52 0.28-0.76 0.52-0.04 0.04-0.16 0.08-0.28 0.08-0.24 0-0.44 0.04-0.68 0.12-0.64 0.08-1.28 0.28-1.96 0.28-0.6 0.04-1.2 0.04-1.8 0-1.08-0.04-2.12 0-3.16 0-0.12 0-0.24 0-0.36 0.04h-0.2c-0.56 0-1.08-0.04-1.6-0.08-0.08-0.04-0.2-0.08-0.28-0.12-0.16-0.24-0.44-0.28-0.68-0.4-0.08-0.04-0.16-0.12-0.16-0.24 0.04-0.48 0-1 0.2-1.48 0.04-0.16 0.12-0.32 0.16-0.48 0.12-0.28 0.32-0.36 0.6-0.4 0.2-0.04 0.44 0 0.64 0.08 0.08 0 0.2-0.08 0.2-0.16 0.04-0.24 0.04-0.44 0.04-0.68v-7.48-8.56-3.48c0-0.16 0-0.32-0.04-0.44 0-0.08-0.08-0.12-0.16-0.16-0.32-0.04-0.64-0.04-0.92 0.04-0.36 0.12-0.72 0.12-1.08 0-0.16-0.08-0.4-0.08-0.6-0.08zm5.88-0.16c0 0.08-0.04 0.12-0.04 0.2v0.68 19.36 0.52 0.24c0.04 0.08 0.12 0.16 0.2 0.16h0.44c0.64 0.04 1.24 0 1.84 0.04 0.48 0 0.92-0.08 1.36-0.16 0.28-0.04 0.56-0.16 0.84-0.24 0.16-0.08 0.24-0.16 0.24-0.32 0.04-0.32 0.12-0.6 0.24-0.84 0.12-0.28 0.16-0.56 0.24-0.84 0.04-0.12 0.08-0.2 0.12-0.28 0.12-0.2 0.16-0.4 0.2-0.6 0.08-0.48 0.12-0.92 0.2-1.4 0.2-1.2 0.2-2.4 0.2-3.6 0-0.4-0.04-0.8-0.16-1.16-0.08-0.16-0.08-0.32-0.12-0.48-0.04-0.4-0.04-0.8-0.12-1.16-0.04-0.16-0.04-0.36-0.04-0.52 0.04-0.6 0-1.16-0.08-1.76-0.04-0.24-0.04-0.52-0.08-0.8 0-0.12 0-0.28-0.04-0.4-0.08-0.68-0.2-1.36-0.32-2.04-0.08-0.64-0.32-1.2-0.52-1.8-0.04-0.2-0.16-0.36-0.28-0.52-0.28-0.28-0.56-0.6-0.8-0.92-0.24-0.28-0.48-0.48-0.8-0.64-0.4-0.28-0.8-0.4-1.28-0.52-0.2-0.04-0.4-0.08-0.64-0.12s-0.52-0.12-0.8-0.08z"/>
    </g>
</svg>
