<svg class="css-ze2te4 css-qd6ojx" viewBox="0 0 86.20366903781355 245.58342067903789">
    <g transform="translate(-100.3399567613214, -17.73966075434624) scale(2.771821951563234)" class="css-1oj3hkq"
       fill="#64ee85">
        <path xmlns="http://www.w3.org/2000/svg" d="M58.6,59.9c0,0-2.6,35.1-6.4,35.1s-6.4-35.1-6.4-35.1H58.6z"></path>
        <path xmlns="http://www.w3.org/2000/svg"
              d="M43.3,57.7h17c3.8-2.1,6.5-5.5,7-9.4H36.2C36.7,52.2,39.4,55.7,43.3,57.7z"></path>
        <path xmlns="http://www.w3.org/2000/svg"
              d="M56.9,6.4c0,0,0,1.1,0.5,2.3s1.7,2.6,0.8,3.5c-0.9,0.9-2.3-0.5-2.1-3.2C56.3,7.5,56.9,6.4,56.9,6.4z"></path>
        <path xmlns="http://www.w3.org/2000/svg"
              d="M63.1,18.2c0,0,0.2,0.8,0,1.7c-0.2,1-0.8,2.2,0,2.6c0.8,0.5,1.5-1,1-2.7C63.7,18.8,63.1,18.2,63.1,18.2z"></path>
        <path xmlns="http://www.w3.org/2000/svg"
              d="M46.6,13.5c0,0,0.1,0.9-0.2,2c-0.4,1.1-1.2,2.4-0.3,3.1s1.9-0.7,1.5-3C47.3,14.3,46.6,13.5,46.6,13.5z"></path>
        <path xmlns="http://www.w3.org/2000/svg"
              d="M39.8,19.7c0,0,0,0.8,0.3,1.6c0.4,0.8,1.1,1.7,0.5,2.3c-0.6,0.6-1.5-0.3-1.4-2.1C39.4,20.4,39.8,19.7,39.8,19.7z"></path>
        <path xmlns="http://www.w3.org/2000/svg"
              d="M59.2,18.2c-0.1-0.1-0.1-0.2-0.2-0.3c0,1.2-0.2,2.4-0.5,3.5c-0.1-0.2-1.4-3-1.4-3s0.1,4-0.4,5.2c-1.2-3.7-2.5-7.2-4-10.6  c-0.5-1.2-1.1-2.3-1.8-3.3c-0.1-0.1-0.2-0.2-0.3-0.3c-1.2,7.7-3,13.2-3.6,14.9c-0.4-0.8-0.7-3.8-0.7-3.8s-1.3,1.7-1.4,1.9  c-0.5-0.7-0.8-2.1-0.7-3.4c0,0-12.6,27.3,7.2,27.3C69.3,46.2,63.5,25.5,59.2,18.2z"></path>
    </g>
</svg>
        <?xml version="1.0" encoding="UTF-8"?>
<svg viewBox="0 0 0 0" xmlns="http://www.w3.org/2000/svg">
<g transform="matrix(2.7718 0 0 2.7718 -100.34 -13.74)" fill="#64ee85" featurekey="QMusi1-0">
    <path d="m58.6 59.9s-2.6 35.1-6.4 35.1-6.4-35.1-6.4-35.1h12.8z" xmlns="http://www.w3.org/2000/svg"/>
    <path d="m43.3 57.7h17c3.8-2.1 6.5-5.5 7-9.4h-31.1c0.5 3.9 3.2 7.4 7.1 9.4z" xmlns="http://www.w3.org/2000/svg"/>
    <path d="m56.9 6.4s0 1.1 0.5 2.3 1.7 2.6 0.8 3.5-2.3-0.5-2.1-3.2c0.2-1.5 0.8-2.6 0.8-2.6z" xmlns="http://www.w3.org/2000/svg"/>
    <path d="m63.1 18.2s0.2 0.8 0 1.7c-0.2 1-0.8 2.2 0 2.6 0.8 0.5 1.5-1 1-2.7-0.4-1-1-1.6-1-1.6z" xmlns="http://www.w3.org/2000/svg"/>
    <path d="m46.6 13.5s0.1 0.9-0.2 2c-0.4 1.1-1.2 2.4-0.3 3.1s1.9-0.7 1.5-3c-0.3-1.3-1-2.1-1-2.1z" xmlns="http://www.w3.org/2000/svg"/>
    <path d="m39.8 19.7s0 0.8 0.3 1.6c0.4 0.8 1.1 1.7 0.5 2.3s-1.5-0.3-1.4-2.1c0.2-1.1 0.6-1.8 0.6-1.8z" xmlns="http://www.w3.org/2000/svg"/>
    <path d="m59.2 18.2c-0.1-0.1-0.1-0.2-0.2-0.3 0 1.2-0.2 2.4-0.5 3.5-0.1-0.2-1.4-3-1.4-3s0.1 4-0.4 5.2c-1.2-3.7-2.5-7.2-4-10.6-0.5-1.2-1.1-2.3-1.8-3.3l-0.3-0.3c-1.2 7.7-3 13.2-3.6 14.9-0.4-0.8-0.7-3.8-0.7-3.8s-1.3 1.7-1.4 1.9c-0.5-0.7-0.8-2.1-0.7-3.4 0 0-12.6 27.3 7.2 27.3 17.9-0.1 12.1-20.8 7.8-28.1z" xmlns="http://www.w3.org/2000/svg"/>
</g>
<g transform="matrix(7.1451 0 0 7.1451 96.283 41.273)" fill="#fff" featurekey="UyNsn2-0">
    <path d="m1.36 5.82c0.62666-0.08 1.2534-0.14334 1.88-0.19s1.3-0.07 2.02-0.07c2.5066 0 4.4134 0.61 5.72 1.83s1.96 3.09 1.96 5.61c0 2.5066-0.66666 4.3366-2 5.49s-3.3066 1.73-5.92 1.73c-0.64 0-1.2533-0.02-1.84-0.06s-1.1933-0.1-1.82-0.18v-14.16zm3.28 11.48c0.65334 0.06666 1.2734 0.06664 1.86-1.9531e-5s1.1033-0.25332 1.55-0.55998 0.8-0.76332 1.06-1.37 0.39-1.4167 0.39-2.43c0-0.89334-0.10334-1.6267-0.31-2.2s-0.48666-1.03-0.84-1.37-0.76-0.57666-1.22-0.71-0.94334-0.2-1.45-0.2h-0.49l-0.55 0.04v8.8zm14.98-7.86c0.69334 0 1.34 0.09668 1.94 0.29002s1.1167 0.50334 1.55 0.93 0.77334 0.98 1.02 1.66 0.37 1.5 0.37 2.46-0.12334 1.78-0.37 2.46-0.58666 1.2333-1.02 1.66-0.95 0.73666-1.55 0.93-1.2467 0.29-1.94 0.29c-0.70666 0-1.3567-0.09666-1.95-0.29s-1.1067-0.50334-1.54-0.93-0.77334-0.98-1.02-1.66-0.37-1.5-0.37-2.46c0-0.94666 0.12334-1.7567 0.37-2.43s0.58666-1.2267 1.02-1.66 0.94668-0.75 1.54-0.95 1.2433-0.3 1.95-0.3zm0 8.06c0.6 0 1.07-0.2 1.41-0.6s0.51-1.1067 0.51-2.12-0.17-1.7233-0.51-2.13-0.81-0.61-1.41-0.61c-0.58666 0-1.0567 0.21-1.41 0.63s-0.53 1.1233-0.53 2.11c0 1.0133 0.17334 1.72 0.52 2.12s0.82 0.6 1.42 0.6zm7.08-11.68c0.62666-0.08 1.2534-0.14334 1.88-0.19s1.3-0.07 2.02-0.07c2.5066 0 4.4134 0.61 5.72 1.83s1.96 3.09 1.96 5.61c0 2.5066-0.66666 4.3366-2 5.49s-3.3066 1.73-5.92 1.73c-0.64 0-1.2533-0.02-1.84-0.06s-1.1933-0.1-1.82-0.18v-14.16zm3.28 11.48c0.65334 0.06666 1.2734 0.06664 1.86-1.9531e-5s1.1033-0.25332 1.55-0.55998 0.8-0.76332 1.06-1.37 0.39-1.4167 0.39-2.43c0-0.89334-0.10334-1.6267-0.31-2.2s-0.48666-1.03-0.84-1.37-0.76-0.57666-1.22-0.71-0.94334-0.2-1.45-0.2h-0.49l-0.55 0.04v8.8z"/>
</g>
</svg>

