<?xml version="1.0" standalone="no"?>
<!DOCTYPE svg PUBLIC "-//W3C//DTD SVG 20010904//EN"
 "http://www.w3.org/TR/2001/REC-SVG-20010904/DTD/svg10.dtd">
<svg version="1.0" xmlns="http://www.w3.org/2000/svg"
 width="20.000000pt" height="20.000000pt" viewBox="0 0 512.000000 512.000000"
 preserveAspectRatio="xMidYMid meet">

<g transform="translate(0.000000,512.000000) scale(0.100000,-0.100000)"
fill="#000000" stroke="none">
<path d="M2335 4904 c-555 -59 -1043 -292 -1435 -684 -451 -451 -690 -1028
-690 -1665 0 -559 189 -1082 548 -1514 207 -250 459 -448 762 -600 329 -165
660 -242 1040 -242 384 0 700 72 1035 235 252 124 437 256 640 460 356 358
577 795 662 1311 25 156 25 544 0 700 -42 257 -110 470 -218 691 -302 616
-866 1075 -1526 1243 -192 49 -308 63 -548 66 -126 2 -248 1 -270 -1z m554
-129 c667 -102 1238 -483 1596 -1065 148 -240 254 -539 301 -845 22 -150 22
-470 0 -620 -71 -461 -275 -892 -571 -1202 l-74 -78 -1 86 c-2 558 -430 1040
-985 1108 -115 14 -952 15 -1063 1 -394 -50 -750 -320 -898 -683 -63 -157 -76
-222 -81 -429 -3 -104 -9 -188 -12 -188 -13 0 -229 223 -287 295 -247 310
-410 687 -470 1090 -24 164 -24 456 0 620 74 493 292 930 637 1274 383 382
863 604 1419 655 88 8 387 -4 489 -19z m386 -2754 c177 -50 344 -150 467 -279
119 -125 203 -272 247 -432 25 -87 43 -272 39 -380 l-3 -74 -60 -49 c-229
-186 -541 -343 -829 -417 -636 -165 -1284 -54 -1830 313 l-88 59 5 217 c4 189
8 228 30 312 48 182 136 335 269 467 117 115 240 192 389 242 139 47 162 49
739 46 532 -2 547 -3 625 -25z"/>
<path d="M2430 4195 c-255 -51 -480 -203 -626 -421 -90 -135 -138 -271 -153
-434 -27 -296 80 -577 298 -782 88 -84 141 -120 254 -173 155 -73 234 -90 427
-89 150 0 173 3 255 28 344 103 579 335 681 671 25 81 28 105 28 250 0 126 -3
175 -18 230 -49 184 -128 319 -266 455 -142 141 -296 224 -493 264 -92 19
-294 20 -387 1z m414 -125 c305 -81 538 -314 617 -615 25 -95 30 -278 10 -370
-54 -250 -212 -458 -442 -579 -552 -291 -1226 78 -1266 694 -25 377 221 735
585 855 151 49 346 55 496 15z"/>
</g>
</svg>
