<svg id="Layer_1" data-name="Layer 1" xmlns="http://www.w3.org/2000/svg" viewBox="0 0 512 512">
    <defs>
        <style>.cls-1{fill:#141f38;}</style>
    </defs>
    <title>qr-code-glyph</title>
    <path class="cls-1"
          d="M204.8,256H128V179.2h25.6v51.2h51.2V204.8H256v25.6H230.4v76.8h51.2V409.6H230.4V384H256V332.8H204.8V384H179.2V307.2h25.6ZM179.2,460.8h25.6V409.6H179.2ZM256,281.6h25.6V256H256ZM281.6,512V435.2H230.4v25.6H256v25.6H179.2V512H281.6Zm25.6-102.4h25.6V358.4H307.2ZM153.6,390.4V480a32,32,0,0,1-32,32H32A32,32,0,0,1,0,480V390.4a32,32,0,0,1,32-32h89.6A32,32,0,0,1,153.6,390.4Zm-51.2,19.2H51.2v51.2h51.2Zm128-230.4h51.2V153.6H230.4ZM307.2,512h25.6V486.4H307.2Zm0-51.2h25.6V435.2H307.2Zm0-128h25.6V307.2H307.2Zm51.2,0H384V230.4H358.4V256H332.8V230.4H307.2v51.2h51.2ZM332.8,102.4V51.2H307.2V76.8H230.4v25.6H332.8ZM332.8,0H307.2V25.6h25.6ZM256,51.2V0H179.2V51.2h25.6V25.6h25.6V51.2Zm128,128H332.8V128H307.2v76.8H384ZM0,121.6V32A32,32,0,0,1,32,0h89.6a32,32,0,0,1,32,32v89.6a32,32,0,0,1-32,32H32A32,32,0,0,1,0,121.6Zm51.2-19.2h51.2V51.2H51.2Zm0,179.2V230.4H76.8V204.8H25.6V179.2H0v51.2H25.6V256H0v25.6H51.2ZM204.8,76.8H179.2V179.2h25.6V128h25.6V102.4H204.8ZM102.4,307.2h38.4V281.6h-64v25.6H0v25.6H102.4Zm0-128H76.8v25.6h25.6Zm384,102.4H460.8V256H435.2v25.6H409.6v25.6H512V256H486.4Zm0,102.4H512V332.8H486.4ZM460.8,204.8h25.6v25.6H512V179.2H460.8Zm-25.6-25.6H409.6v51.2h25.6ZM358.4,384H384V358.4H358.4Zm76.8,76.8V358.4h25.6V332.8H409.6v76.8H358.4v25.6h51.2v25.6H358.4V512H384V486.4h25.6V512h51.2V486.4H435.2ZM486.4,512H512V486.4H486.4ZM512,32v89.6a32,32,0,0,1-32,32H390.4a32,32,0,0,1-32-32V32a32,32,0,0,1,32-32H480A32,32,0,0,1,512,32ZM460.8,51.2H409.6v51.2h51.2Zm25.6,358.4H460.8v51.2H512V435.2H486.4Z"/>
</svg>
