<?xml version="1.0" standalone="no"?>
<!DOCTYPE svg PUBLIC "-//W3C//DTD SVG 20010904//EN"
 "http://www.w3.org/TR/2001/REC-SVG-20010904/DTD/svg10.dtd">
<svg version="1.0" xmlns="http://www.w3.org/2000/svg"
 width="40pt" height="40pt" viewBox="0 0 1024.000000 1024.000000"
 preserveAspectRatio="xMidYMid meet">

<g transform="translate(0.000000,1024.000000) scale(0.100000,-0.100000)"
fill="#000000" stroke="none">
<path d="M1240 7915 l0 -1085 1085 0 1085 0 0 1085 0 1085 -1085 0 -1085 0 0
-1085z m1860 0 l0 -775 -775 0 -775 0 0 775 0 775 775 0 775 0 0 -775z"/>
<path d="M1860 7915 l0 -465 465 0 465 0 0 465 0 465 -465 0 -465 0 0 -465z"/>
<path d="M4340 8690 l0 -310 155 0 155 0 0 310 0 310 -155 0 -155 0 0 -310z"/>
<path d="M4967 8994 c-4 -4 -7 -74 -7 -156 l0 -148 160 0 161 0 -3 153 -3 152
-151 3 c-82 1 -153 -1 -157 -4z"/>
<path d="M6210 8845 l0 -155 -310 0 -310 0 0 -310 0 -310 -155 0 -154 0 -3
153 -3 152 -155 0 -155 0 -3 -307 -2 -308 622 -2 623 -3 3 -152 3 -153 -311 0
-310 0 0 -310 0 -310 155 0 155 0 0 -155 0 -155 -310 0 -310 0 0 -155 0 -155
-160 0 -160 0 0 310 0 310 160 0 160 0 -2 308 -3 307 -310 0 -310 0 -3 -152
-3 -153 -154 0 -155 0 2 308 3 307 153 3 152 3 0 154 0 155 -465 0 -465 0 0
-155 0 -155 155 0 155 0 0 -155 0 -154 -152 -3 -153 -3 -3 -307 -2 -308 155 0
155 0 0 -155 0 -155 -462 -2 -463 -3 -3 -152 -3 -153 621 0 620 0 0 -310 0
-310 155 0 155 0 0 310 0 310 155 0 155 0 0 -155 0 -155 315 0 315 0 0 155 0
155 155 0 155 0 0 155 0 155 155 0 155 0 0 155 0 155 155 0 155 0 0 620 0 620
-155 0 -155 0 0 310 0 310 155 0 155 0 0 155 0 155 -155 0 -155 0 0 -155z
m-1870 -1860 l0 -155 -155 0 -155 0 0 148 c0 82 3 152 7 155 3 4 73 7 155 7
l148 0 0 -155z m620 0 l0 -155 -155 0 -155 0 0 155 0 155 155 0 155 0 0 -155z
m1248 -2 l3 -153 -156 0 -155 0 0 155 0 156 153 -3 152 -3 3 -152z m-1558
-618 l0 -155 -155 0 -155 0 0 148 c0 82 3 152 7 155 3 4 73 7 155 7 l148 0 0
-155z"/>
<path d="M6830 7915 l0 -1085 1085 0 1085 0 0 1085 0 1085 -1085 0 -1085 0 0
-1085z m1860 0 l0 -775 -775 0 -775 0 0 775 0 775 775 0 775 0 0 -775z"/>
<path d="M7450 7915 l0 -465 465 0 465 0 0 465 0 465 -465 0 -465 0 0 -465z"/>
<path d="M3720 8535 l0 -155 155 0 155 0 0 155 0 155 -155 0 -155 0 0 -155z"/>
<path d="M1240 6055 l0 -465 155 0 155 0 0 -315 0 -315 -155 0 -155 0 0 -620
0 -620 155 0 155 0 0 620 0 620 155 0 154 0 3 -152 3 -153 153 -3 152 -3 0
156 0 155 155 0 154 0 3 -152 3 -153 308 -3 307 -2 0 -155 0 -155 -310 0 -311
0 3 -152 3 -153 307 -3 307 -2 3 -153 3 -152 153 -3 152 -3 0 156 0 155 -155
0 -155 0 0 155 0 155 155 0 155 0 0 155 0 155 -155 0 -155 0 0 155 0 155 155
0 155 0 0 160 0 160 -155 0 -156 0 3 153 3 152 307 3 308 2 2 -312 3 -313 463
-3 462 -2 0 160 0 160 -310 0 -310 0 0 310 0 310 -772 -2 -773 -3 -3 -152 -3
-152 -152 -3 -152 -3 -3 -152 -3 -153 -154 0 -155 0 0 310 0 310 -155 0 -155
0 0 155 0 155 620 0 620 0 0 155 0 155 -775 0 -775 0 0 -465z"/>
<path d="M6520 6365 l0 -155 -155 0 -155 0 0 -155 0 -155 -155 0 -155 0 0
-155 0 -155 -155 0 -155 0 0 -155 0 -155 -155 0 -154 0 -3 153 -3 152 -155 0
-155 0 0 -310 0 -310 465 0 465 0 3 313 2 312 465 0 466 0 -3 153 -3 152 -152
3 -153 3 0 154 0 155 155 0 156 0 -3 153 -3 152 -152 3 -153 3 0 -156z"/>
<path d="M7140 6365 l0 -155 155 0 156 0 -3 153 -3 152 -152 3 -153 3 0 -156z"/>
<path d="M7760 6365 l0 -155 155 0 155 0 0 155 0 155 -155 0 -155 0 0 -155z"/>
<path d="M8380 6055 l0 -464 153 -3 152 -3 3 -152 3 -153 -311 0 -310 0 0
-160 0 -160 -155 0 -155 0 0 315 0 315 155 0 156 0 -3 153 -3 152 -307 3 -308
2 0 -155 0 -155 -155 0 -155 0 0 -155 0 -155 -310 0 -310 0 0 -160 0 -160
-155 0 -154 0 -3 -152 -3 -153 -152 -3 -152 -3 -3 -152 -3 -152 -152 -3 -153
-3 0 -154 0 -155 -312 2 -313 3 -3 152 -3 152 158 3 158 3 3 153 3 152 -316 0
-315 0 0 -155 0 -155 -155 0 -155 0 0 155 0 155 -310 0 -310 0 2 -772 3 -773
153 -3 152 -3 0 -154 0 -155 -155 0 -155 0 0 -775 0 -775 465 0 465 0 0 155 0
155 315 0 315 0 0 -155 0 -155 310 0 310 0 0 465 0 465 -155 0 -155 0 0 155 0
155 310 0 310 0 0 -155 0 -155 155 0 155 0 0 155 0 155 155 0 155 0 0 -155 0
-155 155 0 155 0 0 -465 0 -465 930 0 930 0 0 620 0 620 -310 0 -310 0 0 155
0 155 310 0 310 0 0 310 0 310 -310 0 -310 0 0 310 0 310 -155 0 -155 0 0 465
0 465 155 0 155 0 0 -310 0 -310 155 0 155 0 0 -155 0 -155 155 0 155 0 0 310
0 310 -155 0 -155 0 0 155 0 154 153 3 152 3 3 468 2 467 -155 0 -155 0 0 310
0 310 -155 0 -155 0 0 -465z m-932 -937 l3 -158 155 0 155 0 -3 -152 -3 -153
-152 -3 -153 -3 0 -154 0 -155 155 0 155 0 0 -155 0 -155 155 0 155 0 0 -155
0 -155 -155 0 -155 0 0 155 0 155 -310 0 -310 0 0 155 0 155 -155 0 -155 0 0
155 0 155 -155 0 -155 0 0 155 0 155 310 0 310 0 0 160 0 161 153 -3 152 -3 3
-157z m-3106 -930 l3 -153 152 -3 152 -3 3 -152 3 -152 152 -3 152 -3 3 -152
3 -152 158 -3 157 -3 0 -154 0 -155 308 2 307 3 3 153 3 152 -156 0 -155 0 0
310 0 310 310 0 310 0 0 155 0 155 155 0 156 0 -3 -152 -3 -153 -152 -3 -152
-3 -3 -152 -3 -152 -152 -3 -153 -3 0 -154 0 -155 155 0 155 0 -2 -307 -3
-308 -622 -3 -623 -2 0 -155 0 -155 160 0 161 0 -3 -152 -3 -153 -157 -3 -158
-3 0 -154 0 -155 -155 0 -155 0 0 -155 0 -155 -310 0 -310 0 0 310 0 310 465
0 465 0 0 155 0 155 -462 2 -463 3 -3 153 -3 152 156 0 155 0 0 155 0 155
-155 0 -155 0 0 620 0 620 155 0 154 0 3 -152z m3108 -933 l0 -465 -465 0
-465 0 0 465 0 465 465 0 465 0 0 -465z m930 -310 l0 -155 -155 0 -155 0 0
155 0 155 155 0 155 0 0 -155z m-930 -620 l0 -155 155 0 155 0 0 155 0 155
155 0 155 0 0 -310 0 -310 155 0 155 0 0 155 0 155 155 0 155 0 0 -310 0 -310
-310 0 -310 0 0 155 0 155 -310 0 -310 0 0 155 0 155 -155 0 -155 0 0 155 0
155 155 0 155 0 0 -155z m-1862 -617 l-3 -153 -152 -3 -153 -3 0 156 0 155
155 0 156 0 -3 -152z"/>
<path d="M7140 4805 l0 -155 155 0 155 0 0 155 0 155 -155 0 -155 0 0 -155z"/>
<path d="M4652 2948 l3 -153 153 -3 152 -3 0 156 0 155 -155 0 -156 0 3 -152z"/>
<path d="M6830 3255 l0 -156 153 3 152 3 3 153 3 152 -156 0 -155 0 0 -155z"/>
<path d="M1860 3875 l0 -155 155 0 155 0 0 155 0 155 -155 0 -155 0 0 -155z"/>
<path d="M1240 2325 l0 -1085 1085 0 1085 0 0 1085 0 1085 -1085 0 -1085 0 0
-1085z m1860 0 l0 -775 -775 0 -775 0 0 775 0 775 775 0 775 0 0 -775z"/>
<path d="M1860 2325 l0 -465 465 0 465 0 0 465 0 465 -465 0 -465 0 0 -465z"/>
<path d="M6210 1705 l0 -155 310 0 310 0 0 155 0 155 -310 0 -310 0 0 -155z"/>
</g>
</svg>
