<?xml version="1.0" encoding="UTF-8"?>
<svg class="css-ze2te4 css-qd6ojx" viewBox="0 0 47.246 134.6" xmlns="http://www.w3.org/2000/svg">
    <g class="css-7igsec" transform="translate(-54.994 -9.7227) scale(1.5192)" fill="#414242">
        <path d="m58.6 59.9s-2.6 35.1-6.4 35.1-6.4-35.1-6.4-35.1h12.8z" xmlns="http://www.w3.org/2000/svg"/>
        <path d="m43.3 57.7h17c3.8-2.1 6.5-5.5 7-9.4h-31.1c0.5 3.9 3.2 7.4 7.1 9.4z"
              xmlns="http://www.w3.org/2000/svg"/>
        <path d="m56.9 6.4s0 1.1 0.5 2.3 1.7 2.6 0.8 3.5-2.3-0.5-2.1-3.2c0.2-1.5 0.8-2.6 0.8-2.6z"
              xmlns="http://www.w3.org/2000/svg"/>
        <path d="m63.1 18.2s0.2 0.8 0 1.7c-0.2 1-0.8 2.2 0 2.6 0.8 0.5 1.5-1 1-2.7-0.4-1-1-1.6-1-1.6z"
              xmlns="http://www.w3.org/2000/svg"/>
        <path d="m46.6 13.5s0.1 0.9-0.2 2c-0.4 1.1-1.2 2.4-0.3 3.1s1.9-0.7 1.5-3c-0.3-1.3-1-2.1-1-2.1z"
              xmlns="http://www.w3.org/2000/svg"/>
        <path d="m39.8 19.7s0 0.8 0.3 1.6c0.4 0.8 1.1 1.7 0.5 2.3s-1.5-0.3-1.4-2.1c0.2-1.1 0.6-1.8 0.6-1.8z"
              xmlns="http://www.w3.org/2000/svg"/>
        <path d="m59.2 18.2c-0.1-0.1-0.1-0.2-0.2-0.3 0 1.2-0.2 2.4-0.5 3.5-0.1-0.2-1.4-3-1.4-3s0.1 4-0.4 5.2c-1.2-3.7-2.5-7.2-4-10.6-0.5-1.2-1.1-2.3-1.8-3.3l-0.3-0.3c-1.2 7.7-3 13.2-3.6 14.9-0.4-0.8-0.7-3.8-0.7-3.8s-1.3 1.7-1.4 1.9c-0.5-0.7-0.8-2.1-0.7-3.4 0 0-12.6 27.3 7.2 27.3 17.9-0.1 12.1-20.8 7.8-28.1z"
              xmlns="http://www.w3.org/2000/svg"/>
    </g>
</svg>
