<?xml version="1.0" encoding="UTF-8"?>
<svg viewBox="0 0 0 0" xmlns="http://www.w3.org/2000/svg">
    <g transform="scale(4.2177)" fill="#414242" featurekey="rootContainer">
        <path d="M0 0v104.1h104.1V0zm101.7 101.7H2.4V2.4h99.3z" xmlns="http://www.w3.org/2000/svg"/>
    </g>
    <g transform="matrix(1.5192 0 0 1.5192 142.01 69.277)" fill="#72148c" featurekey="symbolFeature-0">
        <path d="m58.6 59.9s-2.6 35.1-6.4 35.1-6.4-35.1-6.4-35.1h12.8z" xmlns="http://www.w3.org/2000/svg"/>
        <path d="m43.3 57.7h17c3.8-2.1 6.5-5.5 7-9.4h-31.1c0.5 3.9 3.2 7.4 7.1 9.4z" xmlns="http://www.w3.org/2000/svg"/>
        <path d="m56.9 6.4s0 1.1 0.5 2.3 1.7 2.6 0.8 3.5-2.3-0.5-2.1-3.2c0.2-1.5 0.8-2.6 0.8-2.6z" xmlns="http://www.w3.org/2000/svg"/>
        <path d="m63.1 18.2s0.2 0.8 0 1.7c-0.2 1-0.8 2.2 0 2.6 0.8 0.5 1.5-1 1-2.7-0.4-1-1-1.6-1-1.6z" xmlns="http://www.w3.org/2000/svg"/>
        <path d="m46.6 13.5s0.1 0.9-0.2 2c-0.4 1.1-1.2 2.4-0.3 3.1s1.9-0.7 1.5-3c-0.3-1.3-1-2.1-1-2.1z" xmlns="http://www.w3.org/2000/svg"/>
        <path d="m39.8 19.7s0 0.8 0.3 1.6c0.4 0.8 1.1 1.7 0.5 2.3s-1.5-0.3-1.4-2.1c0.2-1.1 0.6-1.8 0.6-1.8z" xmlns="http://www.w3.org/2000/svg"/>
        <path d="m59.2 18.2c-0.1-0.1-0.1-0.2-0.2-0.3 0 1.2-0.2 2.4-0.5 3.5-0.1-0.2-1.4-3-1.4-3s0.1 4-0.4 5.2c-1.2-3.7-2.5-7.2-4-10.6-0.5-1.2-1.1-2.3-1.8-3.3l-0.3-0.3c-1.2 7.7-3 13.2-3.6 14.9-0.4-0.8-0.7-3.8-0.7-3.8s-1.3 1.7-1.4 1.9c-0.5-0.7-0.8-2.1-0.7-3.4 0 0-12.6 27.3 7.2 27.3 17.9-0.1 12.1-20.8 7.8-28.1z" xmlns="http://www.w3.org/2000/svg"/>
    </g>
    <g transform="matrix(2.5084 0 0 2.5084 169.99 228.68)" fill="#c522f2" featurekey="nameFeature-0">
        <path d="m10.76 35.4q0 4.6-4.48 4.6h-5.08v-37.36h5.08q4.48 0 4.48 4.64v28.12zm-3.32-27.72q0-0.8-0.32-1.26t-1.16-0.46h-1.44v30.72h1.44q0.84 0 1.16-0.46t0.32-1.26v-27.28zm17.375-0.96v28.68q0 4.6-4.48 4.6h1.76-2.36q-2.4 0-3.44-1.22t-1.04-3.38v-28.68q0-2.2 1.04-3.4t3.44-1.2h1.96-1.36q4.48 0 4.48 4.6zm-3.32 0.44q0-0.8-0.32-1.26t-1.16-0.46-1.14 0.46-0.3 1.26v27.8q0 0.8 0.3 1.26t1.14 0.46 1.16-0.46 0.32-1.26v-27.8zm17.375 28.24q0 4.6-4.48 4.6h-5.08v-37.36h5.08q4.48 0 4.48 4.64v28.12zm-3.32-27.72q0-0.8-0.32-1.26t-1.16-0.46h-1.44v30.72h1.44q0.84 0 1.16-0.46t0.32-1.26v-27.28z"/>
    </g>
    <g transform="matrix(.80502 0 0 .80502 172.1 343.67)" fill="#414242" featurekey="sloganFeature-0">
        <path d="m6.38 11.9c1.52 0.72 3.5 1.86 3.5 3.92 0 0.6-0.1 1.76-0.76 2.74-0.74 1.1-1.9 1.64-3.5 1.64-1.7 0-3.68-0.82-4.3-2.68-0.02-0.06 0-0.12 0.06-0.16l1.84-1.58c0.08-0.06 0.2-0.06 0.26 0.04 0.04 0.1 0.12 0.26 0.22 0.46 0.3 0.62 1.02 1.24 1.82 1.24 0.62 0 1.46-0.34 1.46-1.3 0-0.92-1.26-1.44-2.04-1.74-0.9-0.36-1.82-0.82-2.6-1.5-0.82-0.76-1.22-1.6-1.22-2.6 0-2.5 2.3-3.76 4.48-3.76 1.72 0 3 0.9 3.84 2.68 0.04 0.08 0 0.18-0.06 0.22l-1.78 1.24c-0.08 0.04-0.12 0.04-0.2-0.06-0.68-0.98-1.28-1.44-2.08-1.44-0.42 0-1.4 0.16-1.4 0.9 0 0.9 1.66 1.36 2.46 1.74zm-3.64 5.52c0.5 1 1.88 1.58 3 1.58 1.46 0 2.64-1 2.8-2.52 0.2-1.86-1.26-2.66-2.7-3.38l-0.64-0.28c-1.48-0.66-2.56-1.16-2.56-2.54 0-1.52 1.4-2.22 2.78-2.22 1.26 0 1.92 0.74 2.26 1.2 0.12 0.16 0.32 0.02 0.2-0.14-0.34-0.42-1.06-1.3-2.46-1.3-1.58 0-3.02 0.78-3.02 2.46 0 1.5 1.2 2.08 2.72 2.78l0.62 0.3c1.98 0.94 2.7 1.82 2.54 3.1-0.3 2.04-1.86 2.3-2.54 2.3-1.5 0-2.5-0.9-2.8-1.46-0.1-0.1-0.24 0-0.2 0.12zm12.58-10.62c0.1 0 0.18 0.08 0.18 0.18v10.5h4.32c0.1 0 0.18 0.08 0.18 0.18v2.16c0 0.1-0.08 0.18-0.18 0.18h-6.78c-0.1 0-0.16-0.08-0.16-0.18v-12.84c0-0.1 0.06-0.18 0.16-0.18h2.28zm-1.24 1.22v10.76c0 0.04 0.04 0.1 0.12 0.1h4.62c0.16 0 0.16-0.26 0-0.26h-4.52v-10.6c0-0.14-0.22-0.16-0.22 0zm13.06-1.4c1.72 0 2.92 0.38 3.68 1.2 0.6 0.66 0.88 1.6 0.88 2.94v5.26c0 1.38-0.28 2.34-0.88 2.98-0.78 0.8-1.96 1.2-3.68 1.2-1.78 0-2.94-0.4-3.7-1.2-0.58-0.64-0.9-1.6-0.9-2.98v-5.26c0-1.34 0.32-2.28 0.9-2.96 0.78-0.8 1.96-1.18 3.7-1.18zm1.9 8.8v-4c0-1.76-0.94-2.12-1.8-2.12h-0.24c-1.28 0-1.78 0.82-1.78 2.12v4c0 1.76 0.94 2.14 1.78 2.14h0.24c1.28 0 1.78-0.86 1.8-2.14zm-5.24-4.52v4.96c0 0.94 0.24 1.72 0.8 2.3 0.52 0.52 1.32 0.8 2.3 0.8h0.52c1.88 0 3.1-1.2 3.1-3.1v-4.96c0-2.04-1.08-3.14-3.1-3.14h-0.52c-2.04 0-3.1 1.1-3.1 3.14zm3.62 7.8h-0.52c-0.94 0-1.64-0.24-2.14-0.74s-0.76-1.2-0.76-2.1v-4.96c0-1.9 1.02-2.9 2.9-2.9h0.52c1.9 0 2.84 0.98 2.84 2.9v4.96c0 0.84-0.26 1.6-0.8 2.12-0.52 0.44-1.22 0.72-2.04 0.72zm11.92-3.5c-0.1 0-0.18-0.08-0.18-0.18v-2.14c0-0.1 0.08-0.18 0.18-0.18h4.58c0.1 0 0.18 0.08 0.18 0.18v3.14c0 2.94-1.58 4.18-4.56 4.18-2.78 0-4.6-1.1-4.6-4.18v-5.26c0-2.9 1.62-4.14 4.6-4.14 2.8 0 4.56 1.08 4.56 4.14v0.42c0 0.1-0.08 0.18-0.18 0.18h-2.3c-0.1 0-0.18-0.08-0.18-0.18v-0.26c0-1.22-0.78-1.62-1.8-1.62h-0.24c-0.66 0-1.1 0.18-1.4 0.58-0.28 0.38-0.38 0.88-0.38 1.54v3.96c0 1.74 0.94 2.12 1.78 2.12h0.24c1.22 0 1.8-0.84 1.8-2.12v-0.18h-2.1zm-3.18 0.68c0 2.22 1.08 3.04 3.36 3.04 2.4 0 3.38-1 3.38-3.46v-1.5c0-0.06-0.04-0.14-0.08-0.14h-2.78c-0.18 0-0.14 0.26 0 0.26h2.62v1.38c0 2.14-0.82 3.24-3.14 3.24-1.92 0-3.12-0.68-3.12-2.82v-4.82c0-2.06 0.94-2.98 3.12-2.98 1.62 0 3.1 0.9 2.98 2.28 0 0.16 0.22 0.2 0.26 0.02 0-1.76-1.6-2.52-3.24-2.52-2 0-3.36 0.72-3.36 3.2v4.82zm13.84-8.96c0.02-0.06 0.06-0.12 0.14-0.12h2.48c0.08 0 0.12 0.06 0.14 0.12l3.46 12.86c0.02 0.12-0.06 0.22-0.18 0.22h-2.28c-0.06 0-0.12-0.04-0.14-0.12l-0.78-2.8h-2.92l-0.76 2.8c-0.02 0.08-0.06 0.12-0.14 0.12h-2.3c-0.12 0-0.2-0.1-0.18-0.22zm0.56 7.68h1.66l-0.86-3.02zm3.08 1.18 0.92 3c0.04 0.12 0.26 0.1 0.2-0.06l-3.2-10.64c-0.06-0.26-0.4-0.28-0.46 0l-3.1 10.64c-0.06 0.14 0.16 0.2 0.22 0.08l0.88-3.02h4.54zm-4.48-0.26 2.18-7.36 2.22 7.36h-4.4zm15.32-8.54c0-0.1 0.08-0.18 0.18-0.18h2.3c0.1 0 0.18 0.08 0.18 0.18v12.84c0 0.1-0.08 0.18-0.18 0.18h-2.22c-0.08 0-0.16-0.04-0.18-0.1l-2.92-6.58v6.5c0 0.1-0.08 0.18-0.18 0.18h-2.28c-0.1 0-0.16-0.08-0.16-0.18v-12.84c0-0.1 0.06-0.18 0.16-0.18h2.36c0.08 0 0.12 0.06 0.14 0.1l2.8 6.46v-6.38zm1.44 11.82v-10.8c0-0.14-0.26-0.18-0.26 0v10.28l-5.22-10.32c-0.06-0.08-0.22-0.08-0.22 0.04v10.78c0 0.18 0.24 0.18 0.24 0v-10.26l5.2 10.3c0.08 0.14 0.26 0.1 0.26-0.02zm14.52-9.5h-2.84c-0.1 0-0.18-0.08-0.18-0.18v-2.14c0-0.1 0.08-0.18 0.18-0.18h8.34c0.1 0 0.18 0.08 0.18 0.18v2.14c0 0.1-0.08 0.18-0.18 0.18h-2.84v10.52c0 0.1-0.08 0.18-0.18 0.18h-2.3c-0.1 0-0.18-0.08-0.18-0.18v-10.52zm4.28-1.4h-6.04c-0.14 0-0.14 0.26 0 0.26h2.96v10.6c0 0.14 0.26 0.14 0.26 0v-10.6h2.82c0.2 0 0.18-0.26 0-0.26zm4.36 12.1c-0.1 0-0.16-0.08-0.16-0.18v-12.84c0-0.1 0.06-0.18 0.16-0.18h6.8c0.1 0 0.18 0.08 0.18 0.18v2.14c0 0.1-0.08 0.18-0.18 0.18h-4.32v2.72h3.36c0.1 0 0.16 0.08 0.16 0.18v2.18c0 0.1-0.06 0.18-0.16 0.18h-3.36v2.94h4.32c0.1 0 0.18 0.08 0.18 0.18v2.14c0 0.1-0.08 0.18-0.18 0.18h-6.8zm1-11.94v10.64c0 0.12 0.08 0.16 0.16 0.16h4.6c0.18 0 0.14-0.24 0-0.24h-4.5v-5.22h3.68c0.12 0 0.12-0.28 0-0.28h-3.68v-4.96h4.5c0.14 0 0.18-0.26 0-0.26h-4.6c-0.08 0-0.16 0.06-0.16 0.16zm14.92-1.26h2.28c0.12 0 0.2 0.12 0.16 0.26l-2.6 5.86 3.14 6.84c0.06 0.12-0.02 0.24-0.14 0.24h-2.26c-0.08 0-0.12-0.02-0.14-0.1l-2.2-4.68-2.2 4.68c-0.06 0.1-0.08 0.1-0.16 0.1h-2.28c-0.12 0-0.2-0.12-0.14-0.24l3.12-6.84-2.58-5.86c-0.04-0.14 0.04-0.26 0.16-0.26h2.32c0.08 0 0.12 0.06 0.16 0.1l1.6 3.56 1.62-3.56c0.02-0.04 0.08-0.1 0.14-0.1zm1.18 12.02c0.06 0.1 0.28 0.06 0.2-0.12l-3-5.84 2.42-4.76c0.06-0.12-0.06-0.28-0.2-0.14l-2.36 4.64-2.38-4.64c-0.08-0.14-0.36-0.04-0.26 0.14l2.48 4.76-3.02 5.84c-0.06 0.18 0.18 0.22 0.22 0.12l2.96-5.7zm6.64-9.52h-2.84c-0.1 0-0.18-0.08-0.18-0.18v-2.14c0-0.1 0.08-0.18 0.18-0.18h8.34c0.1 0 0.18 0.08 0.18 0.18v2.14c0 0.1-0.08 0.18-0.18 0.18h-2.84v10.52c0 0.1-0.08 0.18-0.18 0.18h-2.3c-0.1 0-0.18-0.08-0.18-0.18v-10.52zm4.28-1.4h-6.04c-0.14 0-0.14 0.26 0 0.26h2.96v10.6c0 0.14 0.26 0.14 0.26 0v-10.6h2.82c0.2 0 0.18-0.26 0-0.26z"/>
    </g>
</svg>
